<mxfile host="app.diagrams.net" modified="2022-09-25T15:08:18.341Z" agent="5.0 (Windows NT 10.0; Win64; x64) AppleWebKit/537.36 (KHTML, like Gecko) Chrome/100.0.4896.127 Safari/537.36" etag="L4ebxDoYvnt-V35Dq2FQ" version="20.3.6" type="github">
  <diagram id="4d7J87PBZW5cuPnf7rWw" name="第 1 页">
    <mxGraphModel dx="1350" dy="891" grid="1" gridSize="10" guides="1" tooltips="1" connect="1" arrows="1" fold="1" page="1" pageScale="1" pageWidth="1169" pageHeight="827" math="0" shadow="0">
      <root>
        <mxCell id="0" />
        <mxCell id="1" parent="0" />
        <mxCell id="uC686owOd56F0ggzKGV0-3" style="edgeStyle=orthogonalEdgeStyle;rounded=0;orthogonalLoop=1;jettySize=auto;html=1;exitX=1;exitY=0.5;exitDx=0;exitDy=0;fontSize=18;strokeWidth=3;" edge="1" parent="1" source="uC686owOd56F0ggzKGV0-1">
          <mxGeometry relative="1" as="geometry">
            <mxPoint x="380" y="145" as="targetPoint" />
          </mxGeometry>
        </mxCell>
        <mxCell id="uC686owOd56F0ggzKGV0-1" value="&lt;font style=&quot;font-size: 18px;&quot; face=&quot;微软雅黑&quot;&gt;&lt;b&gt;Java Source&lt;/b&gt;&lt;/font&gt;" style="rounded=0;whiteSpace=wrap;html=1;fillColor=#d5e8d4;strokeColor=#82b366;" vertex="1" parent="1">
          <mxGeometry x="130" y="115" width="160" height="60" as="geometry" />
        </mxCell>
        <mxCell id="uC686owOd56F0ggzKGV0-4" value="&lt;font style=&quot;font-size: 18px;&quot; face=&quot;微软雅黑&quot;&gt;&lt;b&gt;Java Class&lt;/b&gt;&lt;/font&gt;" style="rounded=0;whiteSpace=wrap;html=1;fillColor=#fff2cc;strokeColor=#d6b656;" vertex="1" parent="1">
          <mxGeometry x="380" y="115" width="160" height="60" as="geometry" />
        </mxCell>
        <mxCell id="uC686owOd56F0ggzKGV0-5" style="edgeStyle=orthogonalEdgeStyle;rounded=0;orthogonalLoop=1;jettySize=auto;html=1;exitX=1;exitY=0.5;exitDx=0;exitDy=0;fontSize=18;strokeWidth=3;entryX=0;entryY=0.5;entryDx=0;entryDy=0;" edge="1" parent="1" source="uC686owOd56F0ggzKGV0-4" target="uC686owOd56F0ggzKGV0-6">
          <mxGeometry relative="1" as="geometry">
            <mxPoint x="680" y="155" as="targetPoint" />
            <mxPoint x="300" y="155" as="sourcePoint" />
            <Array as="points" />
          </mxGeometry>
        </mxCell>
        <mxCell id="uC686owOd56F0ggzKGV0-14" style="edgeStyle=orthogonalEdgeStyle;rounded=0;orthogonalLoop=1;jettySize=auto;html=1;exitX=0.25;exitY=1;exitDx=0;exitDy=0;strokeWidth=3;fontSize=18;entryX=0.734;entryY=-0.005;entryDx=0;entryDy=0;entryPerimeter=0;" edge="1" parent="1" source="uC686owOd56F0ggzKGV0-6" target="uC686owOd56F0ggzKGV0-7">
          <mxGeometry relative="1" as="geometry">
            <mxPoint x="695" y="250" as="targetPoint" />
          </mxGeometry>
        </mxCell>
        <mxCell id="uC686owOd56F0ggzKGV0-6" value="&lt;font style=&quot;font-size: 18px;&quot; face=&quot;微软雅黑&quot;&gt;&lt;b&gt;类加载子系统&lt;/b&gt;&lt;/font&gt;" style="rounded=0;whiteSpace=wrap;html=1;fillColor=#fff2cc;strokeColor=#d6b656;" vertex="1" parent="1">
          <mxGeometry x="640" y="115" width="220" height="60" as="geometry" />
        </mxCell>
        <mxCell id="uC686owOd56F0ggzKGV0-16" style="edgeStyle=orthogonalEdgeStyle;rounded=0;orthogonalLoop=1;jettySize=auto;html=1;exitX=0.849;exitY=0.053;exitDx=0;exitDy=0;strokeWidth=3;fontSize=18;exitPerimeter=0;" edge="1" parent="1" source="uC686owOd56F0ggzKGV0-7">
          <mxGeometry relative="1" as="geometry">
            <mxPoint x="790" y="180" as="targetPoint" />
          </mxGeometry>
        </mxCell>
        <mxCell id="uC686owOd56F0ggzKGV0-17" value="" style="group;fillColor=#ffcc99;strokeColor=#36393d;" vertex="1" connectable="0" parent="1">
          <mxGeometry x="85" y="246" width="830" height="190" as="geometry" />
        </mxCell>
        <mxCell id="uC686owOd56F0ggzKGV0-7" value="" style="rounded=0;whiteSpace=wrap;html=1;fontSize=18;fillColor=#C4EDAF;strokeColor=#82b366;gradientColor=none;" vertex="1" parent="uC686owOd56F0ggzKGV0-17">
          <mxGeometry width="830" height="190" as="geometry" />
        </mxCell>
        <mxCell id="uC686owOd56F0ggzKGV0-8" value="&lt;b style=&quot;font-family: 微软雅黑;&quot;&gt;方法区&lt;/b&gt;" style="rounded=0;whiteSpace=wrap;html=1;fontSize=18;fillColor=#99CCFF;gradientColor=none;strokeColor=#6c8ebf;" vertex="1" parent="uC686owOd56F0ggzKGV0-17">
          <mxGeometry x="35" y="60" width="160" height="100" as="geometry" />
        </mxCell>
        <mxCell id="uC686owOd56F0ggzKGV0-9" value="&lt;b style=&quot;font-family: 微软雅黑;&quot;&gt;堆&lt;/b&gt;" style="rounded=0;whiteSpace=wrap;html=1;fontSize=18;fillColor=#99CCFF;gradientColor=none;strokeColor=#6c8ebf;" vertex="1" parent="uC686owOd56F0ggzKGV0-17">
          <mxGeometry x="215" y="60" width="120" height="100" as="geometry" />
        </mxCell>
        <mxCell id="uC686owOd56F0ggzKGV0-10" value="&lt;b style=&quot;font-family: 微软雅黑;&quot;&gt;程序计数器&lt;/b&gt;" style="rounded=0;whiteSpace=wrap;html=1;fontSize=18;fillColor=#ffcc99;strokeColor=#36393d;" vertex="1" parent="uC686owOd56F0ggzKGV0-17">
          <mxGeometry x="355" y="60" width="120" height="100" as="geometry" />
        </mxCell>
        <mxCell id="uC686owOd56F0ggzKGV0-12" value="&lt;font face=&quot;微软雅黑&quot;&gt;&lt;b&gt;本地方法栈&lt;/b&gt;&lt;/font&gt;" style="rounded=0;whiteSpace=wrap;html=1;fontSize=18;fillColor=#ffcc99;strokeColor=#36393d;" vertex="1" parent="uC686owOd56F0ggzKGV0-17">
          <mxGeometry x="475" y="110" width="270" height="50" as="geometry" />
        </mxCell>
        <mxCell id="uC686owOd56F0ggzKGV0-13" value="&lt;b style=&quot;font-family: 微软雅黑;&quot;&gt;虚拟机栈&lt;/b&gt;" style="rounded=0;whiteSpace=wrap;html=1;fontSize=18;fillColor=#ffcc99;strokeColor=#36393d;" vertex="1" parent="uC686owOd56F0ggzKGV0-17">
          <mxGeometry x="475" y="60" width="270" height="50" as="geometry" />
        </mxCell>
        <mxCell id="uC686owOd56F0ggzKGV0-29" value="&lt;b&gt;&lt;font style=&quot;font-size: 20px;&quot;&gt;JVM内存结构&lt;/font&gt;&lt;/b&gt;" style="text;html=1;strokeColor=none;fillColor=none;align=center;verticalAlign=middle;whiteSpace=wrap;rounded=0;fontSize=18;" vertex="1" parent="uC686owOd56F0ggzKGV0-17">
          <mxGeometry x="35" width="135" height="50" as="geometry" />
        </mxCell>
        <mxCell id="uC686owOd56F0ggzKGV0-18" value="" style="group;fillColor=#fff2cc;gradientColor=#ffd966;strokeColor=#d6b656;" vertex="1" connectable="0" parent="1">
          <mxGeometry x="85" y="527" width="460" height="170" as="geometry" />
        </mxCell>
        <mxCell id="uC686owOd56F0ggzKGV0-19" value="" style="rounded=0;whiteSpace=wrap;html=1;fontSize=18;fillColor=#C4EDAF;strokeColor=#82b366;gradientColor=none;" vertex="1" parent="uC686owOd56F0ggzKGV0-18">
          <mxGeometry width="459.9999999999999" height="170.00000000000003" as="geometry" />
        </mxCell>
        <mxCell id="uC686owOd56F0ggzKGV0-20" value="&lt;b style=&quot;font-family: 微软雅黑;&quot;&gt;解释器&lt;/b&gt;" style="rounded=0;whiteSpace=wrap;html=1;fontSize=18;fillColor=#fff2cc;gradientColor=none;strokeColor=#d6b656;" vertex="1" parent="uC686owOd56F0ggzKGV0-18">
          <mxGeometry x="19.401176470588236" y="60" width="88.67176470588235" height="80" as="geometry" />
        </mxCell>
        <mxCell id="uC686owOd56F0ggzKGV0-21" value="&lt;b style=&quot;font-family: 微软雅黑;&quot;&gt;JIT Compiler&lt;/b&gt;" style="rounded=0;whiteSpace=wrap;html=1;fontSize=18;fillColor=#fff2cc;gradientColor=none;strokeColor=#d6b656;" vertex="1" parent="uC686owOd56F0ggzKGV0-18">
          <mxGeometry x="135.2941176470588" y="60" width="153.33333333333334" height="80" as="geometry" />
        </mxCell>
        <mxCell id="uC686owOd56F0ggzKGV0-25" value="&lt;b style=&quot;font-family: 微软雅黑;&quot;&gt;GC&lt;/b&gt;" style="rounded=0;whiteSpace=wrap;html=1;fontSize=18;fillColor=#fff2cc;gradientColor=none;strokeColor=#d6b656;" vertex="1" parent="uC686owOd56F0ggzKGV0-18">
          <mxGeometry x="306.6666666666667" y="60" width="81.17647058823529" height="80.47" as="geometry" />
        </mxCell>
        <mxCell id="uC686owOd56F0ggzKGV0-28" value="&lt;b&gt;&lt;font style=&quot;font-size: 20px;&quot;&gt;执行引擎&lt;/font&gt;&lt;/b&gt;" style="text;html=1;strokeColor=none;fillColor=none;align=center;verticalAlign=middle;whiteSpace=wrap;rounded=0;fontSize=18;" vertex="1" parent="uC686owOd56F0ggzKGV0-18">
          <mxGeometry x="27.058823529411764" y="16" width="90.19607843137256" height="30" as="geometry" />
        </mxCell>
        <mxCell id="uC686owOd56F0ggzKGV0-42" style="edgeStyle=orthogonalEdgeStyle;rounded=0;orthogonalLoop=1;jettySize=auto;html=1;entryX=0;entryY=0.5;entryDx=0;entryDy=0;strokeWidth=3;fontSize=20;" edge="1" parent="1" source="uC686owOd56F0ggzKGV0-36" target="uC686owOd56F0ggzKGV0-37">
          <mxGeometry relative="1" as="geometry" />
        </mxCell>
        <mxCell id="uC686owOd56F0ggzKGV0-36" value="&lt;b style=&quot;font-family: 微软雅黑;&quot;&gt;本地方法接口&lt;/b&gt;" style="rounded=0;whiteSpace=wrap;html=1;fontSize=18;fillColor=#fff2cc;gradientColor=none;strokeColor=#d6b656;" vertex="1" parent="1">
          <mxGeometry x="600" y="571.77" width="120" height="80.47" as="geometry" />
        </mxCell>
        <mxCell id="uC686owOd56F0ggzKGV0-37" value="&lt;b style=&quot;font-family: 微软雅黑;&quot;&gt;本地库&lt;/b&gt;" style="rounded=0;whiteSpace=wrap;html=1;fontSize=18;fillColor=#fff2cc;gradientColor=none;strokeColor=#d6b656;" vertex="1" parent="1">
          <mxGeometry x="790" y="571.77" width="80" height="80.47" as="geometry" />
        </mxCell>
        <mxCell id="uC686owOd56F0ggzKGV0-39" style="edgeStyle=orthogonalEdgeStyle;rounded=0;orthogonalLoop=1;jettySize=auto;html=1;exitX=0.709;exitY=-0.012;exitDx=0;exitDy=0;strokeWidth=3;fontSize=18;exitPerimeter=0;entryX=0.392;entryY=1;entryDx=0;entryDy=0;entryPerimeter=0;" edge="1" parent="1" source="uC686owOd56F0ggzKGV0-19" target="uC686owOd56F0ggzKGV0-7">
          <mxGeometry relative="1" as="geometry">
            <mxPoint x="410.00000000000006" y="526.0699999999999" as="sourcePoint" />
            <mxPoint x="410.33" y="450" as="targetPoint" />
          </mxGeometry>
        </mxCell>
        <mxCell id="uC686owOd56F0ggzKGV0-40" style="edgeStyle=orthogonalEdgeStyle;rounded=0;orthogonalLoop=1;jettySize=auto;html=1;strokeWidth=3;fontSize=18;entryX=0.25;entryY=0;entryDx=0;entryDy=0;" edge="1" parent="1" target="uC686owOd56F0ggzKGV0-19">
          <mxGeometry relative="1" as="geometry">
            <mxPoint x="200" y="440" as="sourcePoint" />
            <mxPoint x="420.3600000000001" y="446" as="targetPoint" />
          </mxGeometry>
        </mxCell>
        <mxCell id="uC686owOd56F0ggzKGV0-41" style="edgeStyle=orthogonalEdgeStyle;rounded=0;orthogonalLoop=1;jettySize=auto;html=1;exitX=1;exitY=0.5;exitDx=0;exitDy=0;entryX=0;entryY=0.5;entryDx=0;entryDy=0;strokeWidth=3;fontSize=20;" edge="1" parent="1" source="uC686owOd56F0ggzKGV0-19" target="uC686owOd56F0ggzKGV0-36">
          <mxGeometry relative="1" as="geometry" />
        </mxCell>
        <mxCell id="uC686owOd56F0ggzKGV0-43" style="edgeStyle=orthogonalEdgeStyle;rounded=0;orthogonalLoop=1;jettySize=auto;html=1;strokeWidth=3;fontSize=18;" edge="1" parent="1">
          <mxGeometry relative="1" as="geometry">
            <mxPoint x="696" y="570" as="sourcePoint" />
            <mxPoint x="696" y="440" as="targetPoint" />
          </mxGeometry>
        </mxCell>
        <mxCell id="uC686owOd56F0ggzKGV0-44" style="edgeStyle=orthogonalEdgeStyle;rounded=0;orthogonalLoop=1;jettySize=auto;html=1;strokeWidth=3;fontSize=18;" edge="1" parent="1">
          <mxGeometry relative="1" as="geometry">
            <mxPoint x="635" y="440" as="sourcePoint" />
            <mxPoint x="635" y="570" as="targetPoint" />
          </mxGeometry>
        </mxCell>
      </root>
    </mxGraphModel>
  </diagram>
</mxfile>
